<?xml version="1.0" encoding="UTF-8"?>
<svg width="240px" height="240px" viewBox="0 0 240 240" version="1.1" xmlns="http://www.w3.org/2000/svg" xmlns:xlink="http://www.w3.org/1999/xlink">
    <title>bsc</title>
    <g id="Page-1" stroke="none" stroke-width="1" fill="none" fill-rule="evenodd">
        <g id="Artboard-Copy-2" transform="translate(-554.000000, -1515.000000)" fill-rule="nonzero">
            <g id="bsc" transform="translate(554.000000, 1515.000000)">
                <circle id="Oval" fill="#0B0E11" cx="120" cy="120" r="120"></circle>
                <path d="M86.9029814,106.695716 L120.499626,73.0994327 L154.113237,106.713432 L173.661855,87.1635909 L120.499626,34 L67.3538648,87.1463741 L86.9029814,106.695716 Z M53.5496156,100.949286 L73.0984826,120.498378 L53.5486175,140.048469 L34,120.499376 L53.5496156,100.949286 Z M86.9029814,134.304034 L120.499626,167.89932 L154.112489,134.287067 L173.672334,153.826428 L173.661855,153.836409 L120.499626,207 L67.3531163,153.853875 L67.325919,153.826927 L86.9029814,134.304034 Z M207,120.501871 L187.451133,140.050714 L167.902516,120.501871 L187.451133,100.952779 L207,120.501871 Z" id="Shape" fill="#F0B90B"></path>
                <polygon id="Path" fill="#F0B90B" points="139.981645 119.990068 139.990697 119.990068 120.000251 100 100 119.999623 100.027156 120.027532 120.000251 140 140 119.999623"></polygon>
            </g>
        </g>
    </g>
</svg>