<svg width="25" height="24" viewBox="0 0 25 24" fill="none" xmlns="http://www.w3.org/2000/svg">
<path d="M12.5 24C19.1274 24 24.5 18.6274 24.5 12C24.5 5.37258 19.1274 0 12.5 0C5.87258 0 0.5 5.37258 0.5 12C0.5 18.6274 5.87258 24 12.5 24Z" fill="#4067FF"/>
<path d="M12.873 3V9.6525L18.4958 12.165L12.873 3Z" fill="white" fill-opacity="0.602"/>
<path d="M12.8735 3L7.25 12.165L12.8735 9.6525V3Z" fill="white"/>
<path d="M12.873 16.4759V20.9962L18.4995 13.2119L12.873 16.4759Z" fill="white" fill-opacity="0.602"/>
<path d="M12.8735 20.9964V16.4754L7.25 13.2121L12.8735 20.9964Z" fill="white"/>
<path d="M12.873 15.43L18.4958 12.1653L12.873 9.6543V15.43Z" fill="white" fill-opacity="0.2"/>
<path d="M7.25 12.1653L12.8735 15.43V9.6543L7.25 12.1653Z" fill="white" fill-opacity="0.602"/>
</svg>
