
<svg id="Layer_1" xmlns="http://www.w3.org/2000/svg" xmlns:xlink="http://www.w3.org/1999/xlink" viewBox="0 0 187 59"><defs><style>.cls-1{fill:#fff;}.cls-2{fill:#0e212f;}.cls-3{fill:url(#linear-gradient);}.cls-4{fill:#00e8a3;}</style><linearGradient id="linear-gradient" x1="28.21" y1="18.26" x2="28.21" y2="30.49" gradientUnits="userSpaceOnUse"><stop offset="0" stop-color="#0e212f"/><stop offset="1" stop-color="#00e8a3"/></linearGradient></defs><path class="cls-1" d="m74.4,21.49v16.04h-3.14v-10.56l-5.11,7.08-5.11-7.08v10.56h-3.14v-16.04h3l5.25,7.58,5.25-7.58h3Z"/><path class="cls-1" d="m77.38,21.49v2.84h11.82v-2.84h-11.82Zm0,16.04h11.8v-2.84h-11.8v2.84Zm10.65-9.53h-10.65v2.75h10.65v-2.75Z"/><path class="cls-1" d="m107.37,30.22c0,4.54-3.3,7.63-8.11,7.63s-8.55-3.62-8.55-8.36,3.64-8.32,8.41-8.32c3.96,0,6.69,2.22,7.7,4.9l-2.91.82c-.8-1.65-2.29-2.77-4.77-2.77-3.14,0-5.25,2.45-5.25,5.34s1.99,5.45,5.59,5.45c2.7,0,4.35-1.6,4.63-3.6h-4.93v-2.7h8.18v1.6Z"/><path class="cls-1" d="m117.71,21.49h-4.08l-6.14,16.04h3.25l2.36-6.25h0l2.57-6.78,2.57,6.78h0l1.05,2.77h.01l1.31,3.48h3.28l-6.16-16.04Z"/><path class="cls-1" d="m138.03,21.49h-6.96v2.82h6.9c2.75,0,4.58,2.08,4.58,5.13s-1.83,5.25-4.58,5.25h-6.9v2.84h6.96c4.72,0,7.68-3.39,7.68-8.02s-3-8.02-7.68-8.02Z"/><path class="cls-1" d="m148.02,21.49h3.18v16.04h-3.18v-16.04Z"/><path class="cls-1" d="m153.52,29.48c0-4.72,3.6-8.32,8.36-8.32,4.33,0,7.03,2.66,7.77,5.2l-3.07.76c-.53-1.56-2.25-3-4.67-3-3.16,0-5.18,2.45-5.18,5.34s2.02,5.43,5.18,5.43c2.43,0,4.15-1.4,4.67-2.98l3.05.78c-.73,2.57-3.44,5.16-7.68,5.16-4.83,0-8.43-3.62-8.43-8.36Z"/><path class="cls-1" d="m171.83,21.49v2.84h11.82v-2.84h-11.82Zm0,16.04h11.8v-2.84h-11.8v2.84Zm10.65-9.53h-10.65v2.75h10.65v-2.75Z"/><path class="cls-1" d="m23.99,3.02L7.38,12.62c-2.61,1.51-4.21,4.29-4.21,7.3v19.18c0,3.01,1.61,5.79,4.21,7.3l16.61,9.59c2.61,1.51,5.82,1.51,8.43,0l16.61-9.59c2.61-1.51,4.21-4.29,4.21-7.3v-19.18c0-3.01-1.61-5.79-4.21-7.3L32.42,3.02c-2.61-1.51-5.82-1.51-8.43,0Z"/><path class="cls-2" d="m28.21,54.68c-.87,0-1.73-.22-2.51-.67l-17.46-10.08c-1.55-.89-2.51-2.55-2.51-4.34v-20.16c0-1.78.96-3.45,2.51-4.34L25.7,5.01c1.55-.89,3.47-.89,5.01,0l17.46,10.08c1.55.89,2.51,2.55,2.51,4.34v20.16c0,1.78-.96,3.45-2.51,4.34l-17.46,10.08c-.77.45-1.64.67-2.51.67Zm0-48.78c-.6,0-1.19.15-1.73.46l-17.46,10.08c-1.06.61-1.73,1.76-1.73,2.99v20.16c0,1.23.66,2.37,1.73,2.99l17.46,10.08c1.06.61,2.39.61,3.45,0l17.46-10.08c1.06-.61,1.73-1.76,1.73-2.99v-20.16c0-1.23-.66-2.37-1.73-2.99L29.93,6.36c-.53-.31-1.13-.46-1.73-.46Z"/><path class="cls-3" d="m36.91,26.4h5.59l-12.19-12.18c-1.16-1.16-3.05-1.16-4.21,0l-12.18,12.18h6.83l-2.27,2.73s10.67,6.75,11.45,6.75,7.83-3.82,7.93-4.55.24-4.01,0-4.16c-.08-.05-.46-.36-.95-.77Z"/><path class="cls-4" d="m45.66,34.21c-.33,4.62-4.03,8.38-8.64,8.77-3.69.32-6.98-1.48-8.81-4.31-1.83,2.82-5.11,4.62-8.79,4.31-4.65-.39-8.37-4.2-8.67-8.86-.19-3.08,1.09-5.85,3.19-7.72h0s1.69-1.76,1.69-1.76c.79-.82,2.04-1,3.03-.43l6.55,3.78c.93.53,1.97.8,3.01.8s2.08-.27,3.01-.8l6.56-3.79c.99-.57,2.24-.4,3.03.42l1.84,1.9h-.01c2.03,1.88,3.24,4.63,3.02,7.66Z"/><polygon class="cls-4" points="28.21 37.84 21.11 47.21 35.31 47.21 28.21 37.84 21.11 47.21 35.31 47.21 28.21 37.84"/><rect class="cls-2" x="22.71" y="14.39" width="10.99" height="10.99" rx="5.49" ry="5.49" transform="translate(-5.8 25.77) rotate(-45)"/><circle class="cls-4" cx="28.21" cy="19.89" r="1.06"/><circle class="cls-4" cx="24.4" cy="19.77" r="1.06"/><circle class="cls-4" cx="28.09" cy="16.07" r="1.06"/><circle class="cls-4" cx="28.32" cy="23.7" r="1.06"/><circle class="cls-4" cx="32.02" cy="20" r="1.06"/></svg>