<svg width="48" height="49" viewBox="0 0 48 49" fill="none" xmlns="http://www.w3.org/2000/svg">
<g clip-path="url(#clip0_16_838)">
<path d="M20.4172 1.7707L6.18001 9.99927C3.94287 11.2936 2.57144 13.6764 2.57144 16.2564V32.6964C2.57144 35.2764 3.95144 37.6593 6.18001 38.9536L20.4172 47.1736C22.6543 48.4678 25.4057 48.4678 27.6429 47.1736L41.88 38.9536C44.1172 37.6593 45.4886 35.2764 45.4886 32.6964V16.2564C45.4886 13.6764 44.1086 11.2936 41.88 9.99927L27.6429 1.7707C25.4057 0.476416 22.6543 0.476416 20.4172 1.7707Z" fill="white"/>
<path d="M24.0343 46.0508C23.2886 46.0508 22.5515 45.8622 21.8829 45.4765L6.91721 36.8365C5.58863 36.0736 4.76578 34.6508 4.76578 33.1165V15.8365C4.76578 14.3108 5.58863 12.8794 6.91721 12.1165L21.8829 3.4765C23.2115 2.71364 24.8572 2.71364 26.1772 3.4765L41.1429 12.1165C42.4715 12.8794 43.2943 14.3022 43.2943 15.8365V33.1165C43.2943 34.6422 42.4715 36.0736 41.1429 36.8365L26.1772 45.4765C25.5172 45.8622 24.7715 46.0508 24.0258 46.0508H24.0343ZM24.0343 4.23936C23.5201 4.23936 23.0143 4.36793 22.5515 4.63364L7.58578 13.2736C6.67721 13.7965 6.10292 14.7822 6.10292 15.8365V33.1165C6.10292 34.1708 6.66864 35.1479 7.58578 35.6794L22.5515 44.3194C23.4601 44.8422 24.6001 44.8422 25.5086 44.3194L40.4743 35.6794C41.3829 35.1565 41.9572 34.1708 41.9572 33.1165V15.8365C41.9572 14.7822 41.3915 13.8051 40.4743 13.2736L25.5086 4.63364C25.0543 4.36793 24.5401 4.23936 24.0258 4.23936H24.0343Z" fill="#0E212F"/>
<path d="M31.4915 21.8108H36.2829L25.8343 11.3708C24.84 10.3766 23.22 10.3766 22.2257 11.3708L11.7857 21.8108H17.64L15.6943 24.1508C15.6943 24.1508 24.84 29.9366 25.5086 29.9366C26.1772 29.9366 32.22 26.6623 32.3057 26.0366C32.3915 25.4108 32.5115 22.5994 32.3057 22.4708C32.2372 22.428 31.9114 22.1623 31.4915 21.8108Z" fill="url(#paint0_linear_16_838)"/>
<path d="M38.9915 28.5051C38.7087 32.4651 35.5372 35.688 31.5858 36.0223C28.423 36.2966 25.603 34.7537 24.0344 32.328C22.4658 34.7451 19.6544 36.288 16.5001 36.0223C12.5144 35.688 9.32582 32.4223 9.06868 28.428C8.90582 25.788 10.003 23.4137 11.803 21.8108L13.2515 20.3023C13.9287 19.5994 15.0001 19.4451 15.8487 19.9337L21.463 23.1737C22.2601 23.628 23.1515 23.8594 24.043 23.8594C24.9344 23.8594 25.8258 23.628 26.623 23.1737L32.2458 19.9251C33.0944 19.4366 34.1658 19.5823 34.843 20.2851L36.4201 21.9137H36.4115C38.1515 23.5251 39.1887 25.8823 39.0001 28.4794L38.9915 28.5051Z" fill="#00E8A3"/>
<path d="M24.0344 31.6165L17.9487 39.6479H30.1202L24.0344 31.6165L17.9487 39.6479H30.1202L24.0344 31.6165Z" fill="#00E8A3"/>
<path d="M20.7024 12.8946L20.6963 12.9007C18.8586 14.7384 18.8586 17.7179 20.6963 19.5556L20.7024 19.5617C22.5401 21.3993 25.5196 21.3993 27.3573 19.5617L27.3633 19.5556C29.201 17.7179 29.201 14.7384 27.3633 12.9007L27.3573 12.8946C25.5196 11.0569 22.5401 11.057 20.7024 12.8946Z" fill="#0E212F"/>
<path d="M24.0343 17.1394C24.5361 17.1394 24.9428 16.7326 24.9428 16.2308C24.9428 15.729 24.5361 15.3223 24.0343 15.3223C23.5325 15.3223 23.1257 15.729 23.1257 16.2308C23.1257 16.7326 23.5325 17.1394 24.0343 17.1394Z" fill="#00E8A3"/>
<path d="M20.7687 17.0364C21.2705 17.0364 21.6773 16.6297 21.6773 16.1279C21.6773 15.6261 21.2705 15.2193 20.7687 15.2193C20.2669 15.2193 19.8602 15.6261 19.8602 16.1279C19.8602 16.6297 20.2669 17.0364 20.7687 17.0364Z" fill="#00E8A3"/>
<path d="M23.9315 13.8651C24.4333 13.8651 24.8401 13.4583 24.8401 12.9565C24.8401 12.4547 24.4333 12.0479 23.9315 12.0479C23.4297 12.0479 23.0229 12.4547 23.0229 12.9565C23.0229 13.4583 23.4297 13.8651 23.9315 13.8651Z" fill="#00E8A3"/>
<path d="M24.1287 20.4049C24.6305 20.4049 25.0372 19.9981 25.0372 19.4963C25.0372 18.9946 24.6305 18.5878 24.1287 18.5878C23.6269 18.5878 23.2201 18.9946 23.2201 19.4963C23.2201 19.9981 23.6269 20.4049 24.1287 20.4049Z" fill="#00E8A3"/>
<path d="M27.3001 17.2335C27.8018 17.2335 28.2086 16.8267 28.2086 16.325C28.2086 15.8232 27.8018 15.4164 27.3001 15.4164C26.7983 15.4164 26.3915 15.8232 26.3915 16.325C26.3915 16.8267 26.7983 17.2335 27.3001 17.2335Z" fill="#00E8A3"/>
</g>
<defs>
<linearGradient id="paint0_linear_16_838" x1="24.0343" y1="14.8337" x2="24.0343" y2="25.3166" gradientUnits="userSpaceOnUse">
<stop stop-color="#0E212F"/>
<stop offset="1" stop-color="#00E8A3"/>
</linearGradient>
<clipPath id="clip0_16_838">
<rect width="48" height="48" fill="white" transform="translate(0 0.5)"/>
</clipPath>
</defs>
</svg>
