<svg width="125" height="1027" viewBox="0 0 125 1027" fill="none" xmlns="http://www.w3.org/2000/svg">
<path d="M16.6001 1.11133L16.6001 1025.11" stroke="#707070" stroke-width="2" stroke-linecap="round" stroke-linejoin="round" stroke-dasharray="8 8"/>
<path d="M23.1001 132.43L123.1 132.43" stroke="#707070" stroke-width="2" stroke-linecap="round" stroke-linejoin="round" stroke-dasharray="8 8"/>
<path d="M23.1001 510.997H123.1" stroke="#707070" stroke-width="2" stroke-linecap="round" stroke-linejoin="round" stroke-dasharray="8 8"/>
<path d="M23.1001 887.112H123.1" stroke="#707070" stroke-width="2" stroke-linecap="round" stroke-linejoin="round" stroke-dasharray="8 8"/>
<path d="M19.1001 321.713H119.1" stroke="#707070" stroke-width="2" stroke-linecap="round" stroke-linejoin="round" stroke-dasharray="8 8"/>
<path d="M19.1001 700.28H119.1" stroke="#707070" stroke-width="2" stroke-linecap="round" stroke-linejoin="round" stroke-dasharray="8 8"/>
<circle cx="16.3667" cy="884.111" r="16" transform="rotate(90 16.3667 884.111)" fill="url(#paint0_linear_74_2808)"/>
<circle cx="16.3667" cy="884.111" r="12" transform="rotate(90 16.3667 884.111)" fill="#00E8A3"/>
<circle cx="16.3667" cy="884.112" r="8" transform="rotate(90 16.3667 884.112)" fill="url(#paint1_linear_74_2808)"/>
<path d="M16.3283 887.599C16.0723 887.599 15.803 887.57 15.5203 887.511C15.2376 887.453 14.9763 887.362 14.7363 887.239C14.5923 887.165 14.491 887.069 14.4323 886.951C14.379 886.829 14.3603 886.706 14.3763 886.583C14.3976 886.461 14.4456 886.351 14.5203 886.255C14.6003 886.159 14.699 886.098 14.8163 886.071C14.939 886.039 15.0723 886.061 15.2163 886.135C15.3923 886.221 15.5736 886.285 15.7603 886.327C15.9523 886.37 16.131 886.391 16.2963 886.391C16.4776 886.391 16.6323 886.365 16.7603 886.311C16.8883 886.258 16.9843 886.181 17.0483 886.079C17.1176 885.978 17.1523 885.858 17.1523 885.719C17.1523 885.506 17.0803 885.338 16.9363 885.215C16.7923 885.093 16.6003 885.031 16.3603 885.031C16.2536 885.031 16.1363 885.047 16.0083 885.079C15.8856 885.111 15.7576 885.173 15.6243 885.263C15.5656 885.295 15.4856 885.333 15.3843 885.375C15.283 885.413 15.179 885.431 15.0723 885.431C14.8803 885.431 14.739 885.386 14.6483 885.295C14.5576 885.205 14.5123 885.077 14.5123 884.911V882.495C14.5123 882.293 14.5656 882.138 14.6723 882.031C14.7843 881.925 14.939 881.871 15.1363 881.871H17.6483C17.8456 881.871 17.9976 881.922 18.1043 882.023C18.211 882.125 18.2643 882.274 18.2643 882.471C18.2643 882.663 18.211 882.81 18.1043 882.911C17.9976 883.013 17.8456 883.063 17.6483 883.063H15.8963V884.319H15.5603C15.6883 884.17 15.8563 884.058 16.0643 883.983C16.2723 883.903 16.499 883.863 16.7443 883.863C17.1016 883.863 17.4163 883.941 17.6883 884.095C17.9603 884.245 18.171 884.455 18.3203 884.727C18.475 884.999 18.5523 885.317 18.5523 885.679C18.5523 886.063 18.4616 886.402 18.2803 886.695C18.1043 886.983 17.8483 887.207 17.5123 887.367C17.1816 887.522 16.787 887.599 16.3283 887.599Z" fill="white"/>
<ellipse cx="16.3667" cy="320.111" rx="16.0001" ry="16" transform="rotate(90 16.3667 320.111)" fill="url(#paint2_linear_74_2808)"/>
<ellipse cx="16.1667" cy="320.294" rx="12.0001" ry="12" transform="rotate(90 16.1667 320.294)" fill="#00E8A3"/>
<ellipse cx="16.3667" cy="320.111" rx="8.00004" ry="8" transform="rotate(90 16.3667 320.111)" fill="url(#paint3_linear_74_2808)"/>
<path d="M14.9202 323.695C14.6856 323.695 14.5149 323.641 14.4082 323.535C14.3069 323.423 14.2562 323.26 14.2562 323.047C14.2562 322.897 14.2882 322.764 14.3522 322.647C14.4216 322.529 14.5096 322.415 14.6162 322.303L16.0162 320.839C16.2242 320.615 16.3709 320.423 16.4562 320.263C16.5469 320.103 16.5922 319.943 16.5922 319.783C16.5922 319.58 16.5256 319.428 16.3922 319.327C16.2589 319.225 16.0669 319.175 15.8162 319.175C15.6882 319.175 15.5522 319.193 15.4082 319.231C15.2642 319.263 15.1096 319.321 14.9442 319.407C14.8002 319.471 14.6696 319.489 14.5522 319.463C14.4402 319.436 14.3442 319.377 14.2642 319.287C14.1896 319.196 14.1416 319.092 14.1202 318.975C14.1042 318.857 14.1229 318.743 14.1762 318.631C14.2296 318.513 14.3256 318.417 14.4642 318.343C14.7096 318.209 14.9629 318.113 15.2242 318.055C15.4909 317.996 15.7576 317.967 16.0242 317.967C16.4616 317.967 16.8269 318.031 17.1202 318.159C17.4189 318.287 17.6456 318.473 17.8002 318.719C17.9549 318.959 18.0322 319.257 18.0322 319.615C18.0322 319.839 17.9976 320.057 17.9282 320.271C17.8642 320.484 17.7576 320.697 17.6082 320.911C17.4642 321.124 17.2696 321.351 17.0242 321.591L15.7282 322.871V322.503H17.7042C17.9016 322.503 18.0509 322.553 18.1522 322.655C18.2589 322.756 18.3122 322.903 18.3122 323.095C18.3122 323.287 18.2589 323.436 18.1522 323.543C18.0509 323.644 17.9016 323.695 17.7042 323.695H14.9202Z" fill="white"/>
<ellipse cx="16.3667" cy="509.111" rx="16.0001" ry="16" transform="rotate(90 16.3667 509.111)" fill="url(#paint4_linear_74_2808)"/>
<ellipse cx="16.1667" cy="509.008" rx="12.0001" ry="12" transform="rotate(90 16.1667 509.008)" fill="#00E8A3"/>
<ellipse cx="16.1667" cy="509.008" rx="8.00004" ry="8" transform="rotate(90 16.1667 509.008)" fill="url(#paint5_linear_74_2808)"/>
<path d="M16.0002 512.496C15.7282 512.496 15.4562 512.47 15.1842 512.416C14.9122 512.363 14.6776 512.288 14.4802 512.192C14.3096 512.112 14.1896 512.014 14.1202 511.896C14.0562 511.779 14.0296 511.659 14.0402 511.536C14.0509 511.414 14.0936 511.304 14.1682 511.208C14.2482 511.112 14.3496 511.048 14.4722 511.016C14.6002 510.979 14.7442 510.995 14.9042 511.064C15.1016 511.15 15.2829 511.208 15.4482 511.24C15.6136 511.272 15.7789 511.288 15.9442 511.288C16.1362 511.288 16.2962 511.267 16.4242 511.224C16.5522 511.182 16.6482 511.118 16.7122 511.032C16.7762 510.942 16.8082 510.83 16.8082 510.696C16.8082 510.51 16.7416 510.374 16.6082 510.288C16.4802 510.198 16.2909 510.152 16.0402 510.152H15.6082C15.4056 510.152 15.2509 510.102 15.1442 510C15.0376 509.899 14.9842 509.755 14.9842 509.568C14.9842 509.382 15.0376 509.238 15.1442 509.136C15.2509 509.035 15.4056 508.984 15.6082 508.984H15.8962C16.0509 508.984 16.1816 508.963 16.2882 508.92C16.4002 508.878 16.4856 508.816 16.5442 508.736C16.6029 508.651 16.6322 508.547 16.6322 508.424C16.6322 508.248 16.5682 508.115 16.4402 508.024C16.3176 507.934 16.1336 507.888 15.8882 507.888C15.7389 507.888 15.5869 507.904 15.4322 507.936C15.2776 507.968 15.1122 508.024 14.9362 508.104C14.7976 508.163 14.6696 508.176 14.5522 508.144C14.4402 508.112 14.3469 508.051 14.2722 507.96C14.2029 507.864 14.1602 507.76 14.1442 507.648C14.1282 507.531 14.1469 507.416 14.2002 507.304C14.2536 507.192 14.3549 507.099 14.5042 507.024C14.7282 506.912 14.9709 506.827 15.2322 506.768C15.4989 506.71 15.7656 506.68 16.0322 506.68C16.4536 506.68 16.8136 506.742 17.1122 506.864C17.4109 506.987 17.6376 507.166 17.7922 507.4C17.9522 507.63 18.0322 507.907 18.0322 508.232C18.0322 508.446 17.9922 508.643 17.9122 508.824C17.8322 509.006 17.7149 509.158 17.5602 509.28C17.4056 509.398 17.2242 509.483 17.0162 509.536V509.424C17.3896 509.483 17.6802 509.64 17.8882 509.896C18.1016 510.147 18.2082 510.462 18.2082 510.84C18.2082 511.182 18.1202 511.478 17.9442 511.728C17.7682 511.979 17.5149 512.171 17.1842 512.304C16.8536 512.432 16.4589 512.496 16.0002 512.496Z" fill="white"/>
<ellipse cx="16.3667" cy="700.111" rx="16.0001" ry="16" transform="rotate(90 16.3667 700.111)" fill="url(#paint6_linear_74_2808)"/>
<ellipse cx="16.3667" cy="700.112" rx="12.0001" ry="12" transform="rotate(90 16.3667 700.112)" fill="#00E8A3"/>
<ellipse cx="16.3667" cy="700.111" rx="8.00004" ry="8" transform="rotate(90 16.3667 700.111)" fill="url(#paint7_linear_74_2808)"/>
<path d="M17.2163 703.584C16.9923 703.584 16.8163 703.522 16.6883 703.4C16.5656 703.277 16.5043 703.096 16.5043 702.856V702.568H14.8963C14.6616 702.568 14.4776 702.514 14.3443 702.408C14.2163 702.301 14.1523 702.138 14.1523 701.92C14.1523 701.792 14.1763 701.669 14.2243 701.552C14.2723 701.429 14.3576 701.282 14.4803 701.112L16.4323 698.264C16.5389 698.104 16.6589 697.986 16.7923 697.912C16.9256 697.837 17.0829 697.8 17.2643 697.8C17.4669 697.8 17.6269 697.861 17.7443 697.984C17.8616 698.101 17.9203 698.282 17.9203 698.528V701.456H18.1123C18.3149 701.456 18.4669 701.504 18.5683 701.6C18.6749 701.696 18.7283 701.832 18.7283 702.008C18.7283 702.189 18.6749 702.328 18.5683 702.424C18.4669 702.52 18.3149 702.568 18.1123 702.568H17.9203V702.856C17.9203 703.09 17.8589 703.272 17.7363 703.4C17.6189 703.522 17.4456 703.584 17.2163 703.584ZM16.5043 701.456V699.568H16.7283L15.2243 701.8V701.456H16.5043Z" fill="white"/>
<ellipse cx="16.3667" cy="131.111" rx="16.0001" ry="16" transform="rotate(90 16.3667 131.111)" fill="url(#paint8_linear_74_2808)"/>
<ellipse cx="16.3667" cy="131.111" rx="12.0001" ry="12" transform="rotate(90 16.3667 131.111)" fill="#00E8A3"/>
<ellipse cx="16.3667" cy="131.111" rx="8.00004" ry="8" transform="rotate(90 16.3667 131.111)" fill="url(#paint9_linear_74_2808)"/>
<path d="M15.2243 134.512C15.027 134.512 14.875 134.461 14.7683 134.36C14.667 134.253 14.6163 134.104 14.6163 133.912C14.6163 133.72 14.667 133.573 14.7683 133.472C14.875 133.37 15.027 133.32 15.2243 133.32H15.9443V130.048H16.6163L15.4563 130.76C15.3176 130.845 15.187 130.88 15.0643 130.864C14.9416 130.842 14.8376 130.789 14.7523 130.704C14.667 130.618 14.611 130.514 14.5843 130.392C14.5576 130.269 14.5683 130.146 14.6163 130.024C14.6643 129.901 14.7603 129.797 14.9043 129.712L16.0083 129.024C16.1256 128.949 16.2456 128.893 16.3683 128.856C16.4963 128.818 16.6296 128.8 16.7683 128.8C16.971 128.8 17.1283 128.853 17.2403 128.96C17.3523 129.061 17.4083 129.21 17.4083 129.408V133.32H18.0483C18.2456 133.32 18.395 133.37 18.4963 133.472C18.603 133.573 18.6563 133.72 18.6563 133.912C18.6563 134.104 18.603 134.253 18.4963 134.36C18.395 134.461 18.2456 134.512 18.0483 134.512H15.2243Z" fill="white"/>
<defs>
<linearGradient id="paint0_linear_74_2808" x1="17.4264" y1="867.311" x2="12.6264" y2="905.711" gradientUnits="userSpaceOnUse">
<stop stop-color="#0E212F"/>
<stop offset="1" stop-color="#00E8A3"/>
</linearGradient>
<linearGradient id="paint1_linear_74_2808" x1="16.8965" y1="875.712" x2="14.4965" y2="894.912" gradientUnits="userSpaceOnUse">
<stop stop-color="#0E212F"/>
<stop offset="1" stop-color="#00E8A3"/>
</linearGradient>
<linearGradient id="paint2_linear_74_2808" x1="16.3667" y1="311.085" x2="16.2967" y2="341.111" gradientUnits="userSpaceOnUse">
<stop stop-color="#0E212F"/>
<stop offset="1" stop-color="#00E8A3"/>
</linearGradient>
<linearGradient id="paint3_linear_74_2808" x1="16.8965" y1="311.711" x2="14.4965" y2="330.911" gradientUnits="userSpaceOnUse">
<stop stop-color="#0E212F"/>
<stop offset="1" stop-color="#00E8A3"/>
</linearGradient>
<linearGradient id="paint4_linear_74_2808" x1="17.4264" y1="492.311" x2="12.6264" y2="530.711" gradientUnits="userSpaceOnUse">
<stop stop-color="#0E212F"/>
<stop offset="1" stop-color="#00E8A3"/>
</linearGradient>
<linearGradient id="paint5_linear_74_2808" x1="16.6966" y1="500.608" x2="14.2966" y2="519.808" gradientUnits="userSpaceOnUse">
<stop stop-color="#0E212F"/>
<stop offset="1" stop-color="#00E8A3"/>
</linearGradient>
<linearGradient id="paint6_linear_74_2808" x1="17.4264" y1="683.311" x2="12.6264" y2="721.711" gradientUnits="userSpaceOnUse">
<stop stop-color="#0E212F"/>
<stop offset="1" stop-color="#00E8A3"/>
</linearGradient>
<linearGradient id="paint7_linear_74_2808" x1="16.8965" y1="691.711" x2="14.4965" y2="710.911" gradientUnits="userSpaceOnUse">
<stop stop-color="#0E212F"/>
<stop offset="1" stop-color="#00E8A3"/>
</linearGradient>
<linearGradient id="paint8_linear_74_2808" x1="16.3667" y1="122.085" x2="16.2967" y2="152.111" gradientUnits="userSpaceOnUse">
<stop stop-color="#0E212F"/>
<stop offset="1" stop-color="#00E8A3"/>
</linearGradient>
<linearGradient id="paint9_linear_74_2808" x1="16.8965" y1="122.711" x2="14.4965" y2="141.911" gradientUnits="userSpaceOnUse">
<stop stop-color="#0E212F"/>
<stop offset="1" stop-color="#00E8A3"/>
</linearGradient>
</defs>
</svg>
