<svg width="217" height="1027" viewBox="0 0 217 1027" fill="none" xmlns="http://www.w3.org/2000/svg">
<path d="M109.233 1.32812L109.233 1025.33" stroke="#707070" stroke-width="2" stroke-linecap="round" stroke-linejoin="round" stroke-dasharray="8 8"/>
<path d="M115.733 132.647L215.733 132.647" stroke="#707070" stroke-width="2" stroke-linecap="round" stroke-linejoin="round" stroke-dasharray="8 8"/>
<path d="M115.733 511.213H215.733" stroke="#707070" stroke-width="2" stroke-linecap="round" stroke-linejoin="round" stroke-dasharray="8 8"/>
<path d="M115.733 887.329H215.733" stroke="#707070" stroke-width="2" stroke-linecap="round" stroke-linejoin="round" stroke-dasharray="8 8"/>
<path d="M1.7334 321.93H101.733" stroke="#707070" stroke-width="2" stroke-linecap="round" stroke-linejoin="round" stroke-dasharray="8 8"/>
<path d="M1.7334 700.497H101.733" stroke="#707070" stroke-width="2" stroke-linecap="round" stroke-linejoin="round" stroke-dasharray="8 8"/>
<circle cx="108.733" cy="887.328" r="40" transform="rotate(90 108.733 887.328)" fill="url(#paint0_linear_15_381)"/>
<circle cx="108.733" cy="887.328" r="30" transform="rotate(90 108.733 887.328)" fill="#00E8A3"/>
<circle cx="108.733" cy="887.329" r="20" transform="rotate(90 108.733 887.329)" fill="url(#paint1_linear_15_381)"/>
<path d="M108.637 895.048C107.997 895.048 107.324 894.975 106.617 894.828C105.911 894.681 105.257 894.455 104.657 894.148C104.297 893.961 104.044 893.721 103.897 893.428C103.764 893.121 103.717 892.815 103.757 892.508C103.811 892.201 103.931 891.928 104.117 891.688C104.317 891.448 104.564 891.295 104.857 891.228C105.164 891.148 105.497 891.201 105.857 891.388C106.297 891.601 106.751 891.761 107.217 891.868C107.697 891.975 108.144 892.028 108.557 892.028C109.011 892.028 109.397 891.961 109.717 891.828C110.037 891.695 110.277 891.501 110.437 891.248C110.611 890.995 110.697 890.695 110.697 890.348C110.697 889.815 110.517 889.395 110.157 889.088C109.797 888.781 109.317 888.628 108.717 888.628C108.451 888.628 108.157 888.668 107.837 888.748C107.531 888.828 107.211 888.981 106.877 889.208C106.731 889.288 106.531 889.381 106.277 889.488C106.024 889.581 105.764 889.628 105.497 889.628C105.017 889.628 104.664 889.515 104.437 889.288C104.211 889.061 104.097 888.741 104.097 888.328V882.288C104.097 881.781 104.231 881.395 104.497 881.128C104.777 880.861 105.164 880.728 105.657 880.728H111.937C112.431 880.728 112.811 880.855 113.077 881.108C113.344 881.361 113.477 881.735 113.477 882.228C113.477 882.708 113.344 883.075 113.077 883.328C112.811 883.581 112.431 883.708 111.937 883.708H107.557V886.848H106.717C107.037 886.475 107.457 886.195 107.977 886.008C108.497 885.808 109.064 885.708 109.677 885.708C110.571 885.708 111.357 885.901 112.037 886.288C112.717 886.661 113.244 887.188 113.617 887.868C114.004 888.548 114.197 889.341 114.197 890.248C114.197 891.208 113.971 892.055 113.517 892.788C113.077 893.508 112.437 894.068 111.597 894.468C110.771 894.855 109.784 895.048 108.637 895.048Z" fill="white"/>
<ellipse cx="109.233" cy="319.328" rx="40.0002" ry="40" transform="rotate(90 109.233 319.328)" fill="url(#paint2_linear_15_381)"/>
<ellipse cx="108.733" cy="319.786" rx="30.0002" ry="30" transform="rotate(90 108.733 319.786)" fill="#00E8A3"/>
<ellipse cx="109.233" cy="319.328" rx="20.0001" ry="20" transform="rotate(90 109.233 319.328)" fill="url(#paint3_linear_15_381)"/>
<path d="M105.617 327.287C105.031 327.287 104.604 327.154 104.337 326.887C104.084 326.607 103.957 326.2 103.957 325.667C103.957 325.294 104.037 324.96 104.197 324.667C104.371 324.374 104.591 324.087 104.857 323.807L108.357 320.147C108.877 319.587 109.244 319.107 109.457 318.707C109.684 318.307 109.797 317.907 109.797 317.507C109.797 317 109.631 316.62 109.297 316.367C108.964 316.114 108.484 315.987 107.857 315.987C107.537 315.987 107.197 316.034 106.837 316.127C106.477 316.207 106.091 316.354 105.677 316.567C105.317 316.727 104.991 316.774 104.697 316.707C104.417 316.64 104.177 316.494 103.977 316.267C103.791 316.04 103.671 315.78 103.617 315.487C103.577 315.194 103.624 314.907 103.757 314.627C103.891 314.334 104.131 314.094 104.477 313.907C105.091 313.574 105.724 313.334 106.377 313.187C107.044 313.04 107.711 312.967 108.377 312.967C109.471 312.967 110.384 313.127 111.117 313.447C111.864 313.767 112.431 314.234 112.817 314.847C113.204 315.447 113.397 316.194 113.397 317.087C113.397 317.647 113.311 318.194 113.137 318.727C112.977 319.26 112.711 319.794 112.337 320.327C111.977 320.86 111.491 321.427 110.877 322.027L107.637 325.227V324.307H112.577C113.071 324.307 113.444 324.434 113.697 324.687C113.964 324.94 114.097 325.307 114.097 325.787C114.097 326.267 113.964 326.64 113.697 326.907C113.444 327.16 113.071 327.287 112.577 327.287H105.617Z" fill="white"/>
<ellipse cx="109.233" cy="509.328" rx="40.0002" ry="40" transform="rotate(90 109.233 509.328)" fill="url(#paint4_linear_15_381)"/>
<ellipse cx="108.733" cy="509.07" rx="30.0002" ry="30" transform="rotate(90 108.733 509.07)" fill="#00E8A3"/>
<ellipse cx="108.733" cy="509.07" rx="20.0001" ry="20" transform="rotate(90 108.733 509.07)" fill="url(#paint5_linear_15_381)"/>
<path d="M108.317 516.79C107.637 516.79 106.957 516.724 106.277 516.59C105.597 516.457 105.011 516.27 104.517 516.03C104.091 515.83 103.791 515.584 103.617 515.29C103.457 514.997 103.391 514.697 103.417 514.39C103.444 514.084 103.551 513.81 103.737 513.57C103.937 513.33 104.191 513.17 104.497 513.09C104.817 512.997 105.177 513.037 105.577 513.21C106.071 513.424 106.524 513.57 106.937 513.65C107.351 513.73 107.764 513.77 108.177 513.77C108.657 513.77 109.057 513.717 109.377 513.61C109.697 513.504 109.937 513.344 110.097 513.13C110.257 512.904 110.337 512.624 110.337 512.29C110.337 511.824 110.171 511.484 109.837 511.27C109.517 511.044 109.044 510.93 108.417 510.93H107.337C106.831 510.93 106.444 510.804 106.177 510.55C105.911 510.297 105.777 509.937 105.777 509.47C105.777 509.004 105.911 508.644 106.177 508.39C106.444 508.137 106.831 508.01 107.337 508.01H108.057C108.444 508.01 108.771 507.957 109.037 507.85C109.317 507.744 109.531 507.59 109.677 507.39C109.824 507.177 109.897 506.917 109.897 506.61C109.897 506.17 109.737 505.837 109.417 505.61C109.111 505.384 108.651 505.27 108.037 505.27C107.664 505.27 107.284 505.31 106.897 505.39C106.511 505.47 106.097 505.61 105.657 505.81C105.311 505.957 104.991 505.99 104.697 505.91C104.417 505.83 104.184 505.677 103.997 505.45C103.824 505.21 103.717 504.95 103.677 504.67C103.637 504.377 103.684 504.09 103.817 503.81C103.951 503.53 104.204 503.297 104.577 503.11C105.137 502.83 105.744 502.617 106.397 502.47C107.064 502.324 107.731 502.25 108.397 502.25C109.451 502.25 110.351 502.404 111.097 502.71C111.844 503.017 112.411 503.464 112.797 504.05C113.197 504.624 113.397 505.317 113.397 506.13C113.397 506.664 113.297 507.157 113.097 507.61C112.897 508.064 112.604 508.444 112.217 508.75C111.831 509.044 111.377 509.257 110.857 509.39V509.11C111.791 509.257 112.517 509.65 113.037 510.29C113.571 510.917 113.837 511.704 113.837 512.65C113.837 513.504 113.617 514.244 113.177 514.87C112.737 515.497 112.104 515.977 111.277 516.31C110.451 516.63 109.464 516.79 108.317 516.79Z" fill="white"/>
<ellipse cx="108.733" cy="698.353" rx="40.0002" ry="40" transform="rotate(90 108.733 698.353)" fill="url(#paint6_linear_15_381)"/>
<ellipse cx="108.733" cy="698.354" rx="30.0002" ry="30" transform="rotate(90 108.733 698.354)" fill="#00E8A3"/>
<ellipse cx="108.733" cy="698.353" rx="20.0001" ry="20" transform="rotate(90 108.733 698.353)" fill="url(#paint7_linear_15_381)"/>
<path d="M110.857 706.034C110.297 706.034 109.857 705.88 109.537 705.574C109.231 705.267 109.077 704.814 109.077 704.214V703.494H105.057C104.471 703.494 104.011 703.36 103.677 703.094C103.357 702.827 103.197 702.42 103.197 701.874C103.197 701.554 103.257 701.247 103.377 700.954C103.497 700.647 103.711 700.28 104.017 699.854L108.897 692.734C109.164 692.334 109.464 692.04 109.797 691.854C110.131 691.667 110.524 691.574 110.977 691.574C111.484 691.574 111.884 691.727 112.177 692.034C112.471 692.327 112.617 692.78 112.617 693.394V700.714H113.097C113.604 700.714 113.984 700.834 114.237 701.074C114.504 701.314 114.637 701.654 114.637 702.094C114.637 702.547 114.504 702.894 114.237 703.134C113.984 703.374 113.604 703.494 113.097 703.494H112.617V704.214C112.617 704.8 112.464 705.254 112.157 705.574C111.864 705.88 111.431 706.034 110.857 706.034ZM109.077 700.714V695.994H109.637L105.877 701.574V700.714H109.077Z" fill="white"/>
<ellipse cx="108.733" cy="130.503" rx="40.0002" ry="40" transform="rotate(90 108.733 130.503)" fill="url(#paint8_linear_15_381)"/>
<ellipse cx="108.733" cy="130.503" rx="30.0002" ry="30" transform="rotate(90 108.733 130.503)" fill="#00E8A3"/>
<ellipse cx="108.733" cy="130.504" rx="20.0001" ry="20" transform="rotate(90 108.733 130.504)" fill="url(#paint9_linear_15_381)"/>
<path d="M105.877 138.004C105.384 138.004 105.004 137.877 104.737 137.624C104.484 137.357 104.357 136.984 104.357 136.504C104.357 136.024 104.484 135.657 104.737 135.404C105.004 135.151 105.384 135.024 105.877 135.024H107.677V126.844H109.357L106.457 128.624C106.111 128.837 105.784 128.924 105.477 128.884C105.171 128.831 104.911 128.697 104.697 128.484C104.484 128.271 104.344 128.011 104.277 127.704C104.211 127.397 104.237 127.091 104.357 126.784C104.477 126.477 104.717 126.217 105.077 126.004L107.837 124.284C108.131 124.097 108.431 123.957 108.737 123.864C109.057 123.771 109.391 123.724 109.737 123.724C110.244 123.724 110.637 123.857 110.917 124.124C111.197 124.377 111.337 124.751 111.337 125.244V135.024H112.937C113.431 135.024 113.804 135.151 114.057 135.404C114.324 135.657 114.457 136.024 114.457 136.504C114.457 136.984 114.324 137.357 114.057 137.624C113.804 137.877 113.431 138.004 112.937 138.004H105.877Z" fill="white"/>
<defs>
<linearGradient id="paint0_linear_15_381" x1="111.383" y1="845.328" x2="99.3825" y2="941.328" gradientUnits="userSpaceOnUse">
<stop stop-color="#0E212F"/>
<stop offset="1" stop-color="#00E8A3"/>
</linearGradient>
<linearGradient id="paint1_linear_15_381" x1="110.058" y1="866.329" x2="104.058" y2="914.329" gradientUnits="userSpaceOnUse">
<stop stop-color="#0E212F"/>
<stop offset="1" stop-color="#00E8A3"/>
</linearGradient>
<linearGradient id="paint2_linear_15_381" x1="109.233" y1="296.763" x2="109.058" y2="371.828" gradientUnits="userSpaceOnUse">
<stop stop-color="#0E212F"/>
<stop offset="1" stop-color="#00E8A3"/>
</linearGradient>
<linearGradient id="paint3_linear_15_381" x1="110.558" y1="298.328" x2="104.558" y2="346.328" gradientUnits="userSpaceOnUse">
<stop stop-color="#0E212F"/>
<stop offset="1" stop-color="#00E8A3"/>
</linearGradient>
<linearGradient id="paint4_linear_15_381" x1="111.883" y1="467.328" x2="99.8826" y2="563.328" gradientUnits="userSpaceOnUse">
<stop stop-color="#0E212F"/>
<stop offset="1" stop-color="#00E8A3"/>
</linearGradient>
<linearGradient id="paint5_linear_15_381" x1="110.058" y1="488.07" x2="104.058" y2="536.07" gradientUnits="userSpaceOnUse">
<stop stop-color="#0E212F"/>
<stop offset="1" stop-color="#00E8A3"/>
</linearGradient>
<linearGradient id="paint6_linear_15_381" x1="111.383" y1="656.353" x2="99.3826" y2="752.353" gradientUnits="userSpaceOnUse">
<stop stop-color="#0E212F"/>
<stop offset="1" stop-color="#00E8A3"/>
</linearGradient>
<linearGradient id="paint7_linear_15_381" x1="110.058" y1="677.353" x2="104.058" y2="725.353" gradientUnits="userSpaceOnUse">
<stop stop-color="#0E212F"/>
<stop offset="1" stop-color="#00E8A3"/>
</linearGradient>
<linearGradient id="paint8_linear_15_381" x1="108.733" y1="107.938" x2="108.558" y2="183.003" gradientUnits="userSpaceOnUse">
<stop stop-color="#0E212F"/>
<stop offset="1" stop-color="#00E8A3"/>
</linearGradient>
<linearGradient id="paint9_linear_15_381" x1="110.058" y1="109.504" x2="104.058" y2="157.504" gradientUnits="userSpaceOnUse">
<stop stop-color="#0E212F"/>
<stop offset="1" stop-color="#00E8A3"/>
</linearGradient>
</defs>
</svg>
