<svg width="14" height="15" viewBox="0 0 14 15" fill="none" xmlns="http://www.w3.org/2000/svg">
<path d="M7 0.328125C10.8387 0.328125 14 3.48942 14 7.32812C14 11.1951 10.8387 14.3281 7 14.3281C3.13306 14.3281 0 11.1951 0 7.32812C0 3.48942 3.13306 0.328125 7 0.328125ZM10.2177 5.09829C10.246 5.01361 10.246 4.92893 10.2177 4.81603C10.2177 4.75958 10.1613 4.6749 10.1331 4.64667C10.0484 4.562 9.90726 4.562 9.85081 4.562C9.59677 4.562 9.17339 4.70312 7.22581 5.52167C6.54839 5.80393 5.19355 6.36845 3.16129 7.27167C2.82258 7.4128 2.65323 7.52571 2.625 7.66683C2.59677 7.89264 2.96371 7.97732 3.3871 8.11845C3.75403 8.23135 4.23387 8.37248 4.4879 8.37248C4.71371 8.37248 4.96774 8.2878 5.25 8.09022C7.14113 6.79183 8.12903 6.14264 8.18548 6.14264C8.24193 6.14264 8.29839 6.11442 8.32661 6.14264C8.38306 6.19909 8.38306 6.25554 8.35484 6.28377C8.32661 6.4249 6.54839 8.062 6.43548 8.1749C6.04032 8.57006 5.58871 8.82409 6.29435 9.27571C6.8871 9.67087 7.22581 9.9249 7.84677 10.3201C8.24193 10.5741 8.55242 10.8846 8.94758 10.8564C9.14516 10.8281 9.34274 10.6588 9.42742 10.1225C9.68145 8.90877 10.1331 6.19909 10.2177 5.09829Z" fill="#FEFEFE"/>
</svg>
