<svg width="14" height="15" viewBox="0 0 14 15" fill="none" xmlns="http://www.w3.org/2000/svg">
<path d="M7 0.5C10.8387 0.5 14 3.66129 14 7.5C14 11.3669 10.8387 14.5 7 14.5C3.13306 14.5 0 11.3669 0 7.5C0 3.66129 3.13306 0.5 7 0.5ZM10.2177 5.27016C10.246 5.18548 10.246 5.10081 10.2177 4.9879C10.2177 4.93145 10.1613 4.84677 10.1331 4.81855C10.0484 4.73387 9.90726 4.73387 9.85081 4.73387C9.59677 4.73387 9.17339 4.875 7.22581 5.69355C6.54839 5.97581 5.19355 6.54032 3.16129 7.44355C2.82258 7.58468 2.65323 7.69758 2.625 7.83871C2.59677 8.06452 2.96371 8.14919 3.3871 8.29032C3.75403 8.40323 4.23387 8.54435 4.4879 8.54435C4.71371 8.54435 4.96774 8.45968 5.25 8.2621C7.14113 6.96371 8.12903 6.31452 8.18548 6.31452C8.24193 6.31452 8.29839 6.28629 8.32661 6.31452C8.38306 6.37097 8.38306 6.42742 8.35484 6.45565C8.32661 6.59677 6.54839 8.23387 6.43548 8.34677C6.04032 8.74193 5.58871 8.99597 6.29435 9.44758C6.8871 9.84274 7.22581 10.0968 7.84677 10.4919C8.24193 10.746 8.55242 11.0565 8.94758 11.0282C9.14516 11 9.34274 10.8306 9.42742 10.2944C9.68145 9.08064 10.1331 6.37097 10.2177 5.27016Z" fill="#0AC18E"/>
</svg>
