<?xml version="1.0" encoding="UTF-8"?>
<svg id="Calque_1" data-name="Calque 1" xmlns="http://www.w3.org/2000/svg" viewBox="0 0 521 464">
  <defs>
    <style>
      .cls-1 {
        fill: #6ce7b1;
      }

      .cls-1, .cls-2, .cls-3, .cls-4, .cls-5, .cls-6, .cls-7, .cls-8, .cls-9 {
        stroke-width: 0px;
      }

      .cls-2 {
        fill: #42926f;
      }

      .cls-10 {
        fill: none;
        stroke: #4b5e75;
        stroke-miterlimit: 10;
        stroke-width: 1.16px;
      }

      .cls-3 {
        fill: #c2f7e7;
      }

      .cls-4 {
        fill: #e0fbf3;
      }

      .cls-5 {
        fill: #8ef3cf;
      }

      .cls-6 {
        fill: #a5f2d8;
      }

      .cls-7 {
        fill: #58be92;
      }

      .cls-8 {
        fill: #d9fcf2;
      }

      .cls-9 {
        fill: #fefefe;
      }
    </style>
  </defs>
  <path class="cls-10" d="M270.74,463.27c112.78,0,204.21-91.43,204.21-204.21S383.52,54.86,270.74,54.86s-204.21,91.43-204.21,204.21,91.43,204.21,204.21,204.21Z"/>
  <path class="cls-10" d="M269.59,379.93c67.38,0,122.01-54.62,122.01-122.01s-54.62-122.01-122.01-122.01-122.01,54.62-122.01,122.01,54.62,122.01,122.01,122.01Z"/>
  <path class="cls-10" d="M426,126.09l34.54-43h55.46"/>
  <path class="cls-10" d="M384.52,428.21l19.05,19.04h62.95"/>
  <path class="cls-10" d="M138.84,415.8l-25.1,36.02H42.78"/>
  <path class="cls-10" d="M65.99,258.85H7.64"/>
  <path class="cls-10" d="M114.93,127.14l-24.32-24.32h-58.34"/>
  <path class="cls-9" d="M15.43,246.89v-13.63l.89.67-3.31,1.75-.7-2.26,4.49-2.4h1.25v15.86h-2.62ZM12.77,248.07v-2.5h8.02v2.5h-8.02ZM28.39,248.23c-1.1,0-2.1-.25-3-.74-.9-.51-1.64-1.24-2.23-2.18l1.44-1.61c.75.83,1.41,1.4,1.97,1.7s1.17.46,1.82.46,1.25-.14,1.78-.43c.53-.29.94-.68,1.25-1.18.32-.5.48-1.05.48-1.66,0-.64-.15-1.21-.46-1.7-.29-.51-.68-.91-1.18-1.2-.5-.3-1.06-.46-1.68-.46-.3,0-.59.02-.86.07-.27.03-.6.12-.98.26-.38.14-.89.37-1.51.67l-1.37-1.85.98-7.13h9.07v2.4h-7.44l.5-.46-.79,5.33-.6-.7c.16-.16.43-.31.82-.46.38-.16.81-.29,1.27-.38.48-.11.94-.17,1.37-.17,1.02,0,1.94.24,2.74.72.82.46,1.46,1.11,1.92,1.94.48.83.72,1.78.72,2.86s-.26,2.1-.79,3c-.53.88-1.25,1.58-2.16,2.11-.91.51-1.94.77-3.07.77ZM38.96,248.07l11.11-16.8h2.47l-11.23,16.8h-2.35ZM40.49,240.17c-.72,0-1.36-.19-1.92-.58-.54-.4-.98-.94-1.3-1.61-.3-.69-.46-1.47-.46-2.35s.15-1.66.46-2.35c.32-.7.76-1.25,1.32-1.63.56-.4,1.2-.6,1.92-.6s1.35.2,1.9.6c.56.38.99.93,1.3,1.63.32.69.48,1.47.48,2.35s-.16,1.62-.48,2.3-.76,1.23-1.32,1.63c-.56.4-1.19.6-1.9.6ZM40.52,238.37c.34,0,.62-.11.86-.34.26-.22.45-.54.58-.94.14-.42.22-.9.22-1.46s-.07-1.05-.22-1.46c-.13-.42-.32-.74-.58-.96-.24-.22-.54-.34-.89-.34s-.63.12-.89.36c-.26.22-.46.54-.6.96-.13.4-.19.88-.19,1.44,0,.83.15,1.5.46,1.99s.72.74,1.25.74ZM51.13,248.28c-.72,0-1.36-.2-1.92-.6-.54-.4-.98-.94-1.3-1.61-.32-.69-.48-1.46-.48-2.33s.15-1.66.46-2.35c.32-.7.76-1.25,1.32-1.63.56-.4,1.2-.6,1.92-.6s1.35.2,1.9.6c.56.38.99.93,1.3,1.63.32.69.48,1.47.48,2.35s-.16,1.62-.48,2.3-.76,1.23-1.32,1.63c-.54.4-1.17.6-1.87.6ZM51.13,246.51c.34,0,.63-.11.89-.34.26-.24.45-.56.58-.96.14-.42.22-.9.22-1.46,0-.83-.15-1.5-.46-1.99-.3-.51-.71-.77-1.22-.77-.35,0-.66.11-.91.34s-.46.54-.6.96c-.13.42-.19.9-.19,1.46,0,.83.15,1.5.46,2.02.3.5.72.74,1.25.74Z"/>
  <path class="cls-9" d="M44.04,89.7v-13.63l.89.67-3.31,1.75-.7-2.26,4.49-2.4h1.25v15.86h-2.62ZM41.37,90.88v-2.5h8.02v2.5h-8.02ZM58.1,91.12c-1.28,0-2.38-.35-3.31-1.06-.91-.7-1.62-1.7-2.11-2.98-.5-1.3-.74-2.83-.74-4.61s.25-3.3.74-4.58c.5-1.3,1.2-2.3,2.11-3,.93-.7,2.03-1.06,3.31-1.06s2.38.35,3.31,1.06c.93.7,1.64,1.7,2.14,3,.5,1.28.74,2.81.74,4.58s-.25,3.31-.74,4.61c-.5,1.28-1.21,2.27-2.14,2.98-.93.7-2.03,1.06-3.31,1.06ZM58.1,88.77c1.17,0,2.07-.54,2.71-1.63.64-1.1.96-2.66.96-4.66s-.32-3.54-.96-4.63c-.64-1.1-1.54-1.66-2.71-1.66s-2.07.55-2.71,1.66c-.64,1.09-.96,2.63-.96,4.63s.32,3.55.96,4.66c.64,1.09,1.54,1.63,2.71,1.63ZM68.5,90.88l11.11-16.8h2.47l-11.23,16.8h-2.35ZM70.04,82.98c-.72,0-1.36-.19-1.92-.58-.54-.4-.98-.94-1.3-1.61-.3-.69-.46-1.47-.46-2.35s.15-1.66.46-2.35c.32-.7.76-1.25,1.32-1.63.56-.4,1.2-.6,1.92-.6s1.35.2,1.9.6c.56.38.99.93,1.3,1.63.32.69.48,1.47.48,2.35s-.16,1.62-.48,2.3-.76,1.23-1.32,1.63c-.56.4-1.19.6-1.9.6ZM70.06,81.18c.34,0,.62-.11.86-.34.26-.22.45-.54.58-.94.14-.42.22-.9.22-1.46s-.07-1.05-.22-1.46c-.13-.42-.32-.74-.58-.96-.24-.22-.54-.34-.89-.34s-.63.12-.89.36c-.26.22-.46.54-.6.96-.13.4-.19.88-.19,1.44,0,.83.15,1.5.46,1.99.3.5.72.74,1.25.74ZM80.67,91.1c-.72,0-1.36-.2-1.92-.6-.54-.4-.98-.94-1.3-1.61-.32-.69-.48-1.46-.48-2.33s.15-1.66.46-2.35c.32-.7.76-1.25,1.32-1.63.56-.4,1.2-.6,1.92-.6s1.35.2,1.9.6c.56.38.99.93,1.3,1.63.32.69.48,1.47.48,2.35s-.16,1.62-.48,2.3c-.32.69-.76,1.23-1.32,1.63-.54.4-1.17.6-1.87.6ZM80.67,89.32c.34,0,.63-.11.89-.34.26-.24.45-.56.58-.96.14-.42.22-.9.22-1.46,0-.83-.15-1.5-.46-1.99-.3-.51-.71-.77-1.22-.77-.35,0-.66.11-.91.34-.26.22-.46.54-.6.96-.13.42-.19.9-.19,1.46,0,.83.15,1.5.46,2.02.3.5.72.74,1.25.74Z"/>
  <path class="cls-10" d="M238.86,57.3l24.32-24.32h58.35"/>
  <path class="cls-9" d="M282.45,25.87c-1.1,0-2.1-.25-3-.74-.9-.51-1.64-1.24-2.23-2.18l1.44-1.61c.75.83,1.41,1.4,1.97,1.7.56.3,1.17.46,1.82.46s1.25-.14,1.78-.43c.53-.29.94-.68,1.25-1.18.32-.5.48-1.05.48-1.66,0-.64-.15-1.21-.46-1.7-.29-.51-.68-.91-1.18-1.2-.5-.3-1.06-.46-1.68-.46-.3,0-.59.02-.86.07-.27.03-.6.12-.98.26-.38.14-.89.37-1.51.67l-1.37-1.85.98-7.13h9.07v2.4h-7.44l.5-.46-.79,5.33-.6-.7c.16-.16.43-.31.82-.46.38-.16.81-.29,1.27-.38.48-.11.94-.17,1.37-.17,1.02,0,1.94.24,2.74.72.82.46,1.46,1.11,1.92,1.94.48.83.72,1.78.72,2.86s-.26,2.1-.79,3c-.53.88-1.25,1.58-2.16,2.11-.91.51-1.94.77-3.07.77ZM293.02,25.7l11.11-16.8h2.47l-11.23,16.8h-2.35ZM294.55,17.81c-.72,0-1.36-.19-1.92-.58-.54-.4-.98-.94-1.3-1.61-.3-.69-.46-1.47-.46-2.35s.15-1.66.46-2.35c.32-.7.76-1.25,1.32-1.63.56-.4,1.2-.6,1.92-.6s1.35.2,1.9.6c.56.38.99.93,1.3,1.63.32.69.48,1.47.48,2.35s-.16,1.62-.48,2.3c-.32.69-.76,1.23-1.32,1.63-.56.4-1.19.6-1.9.6ZM294.58,16.01c.34,0,.62-.11.86-.34.26-.22.45-.54.58-.94.14-.42.22-.9.22-1.46s-.07-1.05-.22-1.46c-.13-.42-.32-.74-.58-.96-.24-.22-.54-.34-.89-.34s-.63.12-.89.36c-.26.22-.46.54-.6.96-.13.4-.19.88-.19,1.44,0,.83.15,1.5.46,1.99.3.5.72.74,1.25.74ZM305.19,25.92c-.72,0-1.36-.2-1.92-.6-.54-.4-.98-.94-1.3-1.61-.32-.69-.48-1.46-.48-2.33s.15-1.66.46-2.35c.32-.7.76-1.25,1.32-1.63.56-.4,1.2-.6,1.92-.6s1.35.2,1.9.6c.56.38.99.93,1.3,1.63.32.69.48,1.47.48,2.35s-.16,1.62-.48,2.3-.76,1.23-1.32,1.63c-.54.4-1.17.6-1.87.6ZM305.19,24.14c.34,0,.63-.11.89-.34.26-.24.45-.56.58-.96.14-.42.22-.9.22-1.46,0-.83-.15-1.5-.46-1.99-.3-.51-.71-.77-1.22-.77-.35,0-.66.11-.91.34-.26.22-.46.54-.6.96-.13.42-.19.9-.19,1.46,0,.83.15,1.5.46,2.02.3.5.72.74,1.25.74Z"/>
  <path class="cls-9" d="M475.73,70.09c-1.18,0-2.22-.27-3.1-.82-.86-.54-1.68-1.46-2.45-2.74l2.02-1.27c.4.59.79,1.08,1.18,1.46.4.37.81.64,1.22.82.42.18.86.26,1.32.26.56,0,1.08-.14,1.56-.41.48-.29.86-.68,1.15-1.18.29-.5.43-1.06.43-1.68s-.11-1.15-.34-1.58c-.22-.45-.55-.78-.98-1.01-.43-.24-.94-.36-1.54-.36-.27,0-.56.03-.86.1-.29.05-.6.13-.94.24-.34.1-.7.22-1.1.38l-.72-1.9,5.18-5.71.5.74h-7.15v-2.4h9.62l.48.96-5.5,6.1-.6-.62c.13-.06.34-.12.62-.17.3-.06.55-.1.74-.1.7,0,1.36.14,1.97.41.62.26,1.16.62,1.61,1.1.46.46.82,1.02,1.08,1.66.27.62.41,1.3.41,2.02,0,1.09-.26,2.06-.79,2.93-.51.85-1.21,1.52-2.09,2.02-.88.5-1.86.74-2.95.74ZM488.58,70.02c-1.1,0-2.1-.25-3-.74-.9-.51-1.64-1.24-2.23-2.18l1.44-1.61c.75.83,1.41,1.4,1.97,1.7s1.17.46,1.82.46,1.25-.14,1.78-.43c.53-.29.94-.68,1.25-1.18.32-.5.48-1.05.48-1.66,0-.64-.15-1.21-.46-1.7-.29-.51-.68-.91-1.18-1.2-.5-.3-1.06-.46-1.68-.46-.3,0-.59.02-.86.07-.27.03-.6.12-.98.26-.38.14-.89.37-1.51.67l-1.37-1.85.98-7.13h9.07v2.4h-7.44l.5-.46-.79,5.33-.6-.7c.16-.16.43-.31.82-.46.38-.16.81-.29,1.27-.38.48-.11.94-.17,1.37-.17,1.02,0,1.94.24,2.74.72.82.46,1.46,1.11,1.92,1.94.48.83.72,1.78.72,2.86s-.26,2.1-.79,3c-.53.88-1.25,1.58-2.16,2.11-.91.51-1.94.77-3.07.77ZM499.15,69.85l11.11-16.8h2.47l-11.23,16.8h-2.35ZM500.68,61.96c-.72,0-1.36-.19-1.92-.58-.54-.4-.98-.94-1.3-1.61-.3-.69-.46-1.47-.46-2.35s.15-1.66.46-2.35c.32-.7.76-1.25,1.32-1.63.56-.4,1.2-.6,1.92-.6s1.35.2,1.9.6c.56.38.99.93,1.3,1.63.32.69.48,1.47.48,2.35s-.16,1.62-.48,2.3c-.32.69-.76,1.23-1.32,1.63-.56.4-1.19.6-1.9.6ZM500.71,60.16c.34,0,.62-.11.86-.34.26-.22.45-.54.58-.94.14-.42.22-.9.22-1.46s-.07-1.05-.22-1.46c-.13-.42-.32-.74-.58-.96-.24-.22-.54-.34-.89-.34s-.63.12-.89.36c-.26.22-.46.54-.6.96-.13.4-.19.88-.19,1.44,0,.83.15,1.5.46,1.99.3.5.72.74,1.25.74ZM511.32,70.07c-.72,0-1.36-.2-1.92-.6-.54-.4-.98-.94-1.3-1.61-.32-.69-.48-1.46-.48-2.33s.15-1.66.46-2.35c.32-.7.76-1.25,1.32-1.63.56-.4,1.2-.6,1.92-.6s1.35.2,1.9.6c.56.38.99.93,1.3,1.63.32.69.48,1.47.48,2.35s-.16,1.62-.48,2.3c-.32.69-.76,1.23-1.32,1.63-.54.4-1.17.6-1.87.6ZM511.32,68.29c.34,0,.63-.11.89-.34.26-.24.45-.56.58-.96.14-.42.22-.9.22-1.46,0-.83-.15-1.5-.46-1.99-.3-.51-.71-.77-1.22-.77-.35,0-.66.11-.91.34-.26.22-.46.54-.6.96-.13.42-.19.9-.19,1.46,0,.83.15,1.5.46,2.02.3.5.72.74,1.25.74Z"/>
  <path class="cls-9" d="M57.5,436.34v-13.63l.89.67-3.31,1.75-.7-2.26,4.49-2.4h1.25v15.86h-2.62ZM54.83,437.52v-2.5h8.02v2.5h-8.02ZM70.46,437.69c-1.1,0-2.1-.25-3-.74-.9-.51-1.64-1.24-2.23-2.18l1.44-1.61c.75.83,1.41,1.4,1.97,1.7.56.3,1.17.46,1.82.46s1.25-.14,1.78-.43.94-.68,1.25-1.18c.32-.5.48-1.05.48-1.66,0-.64-.15-1.21-.46-1.7-.29-.51-.68-.91-1.18-1.2-.5-.3-1.06-.46-1.68-.46-.3,0-.59.02-.86.07-.27.03-.6.12-.98.26-.38.14-.89.37-1.51.67l-1.37-1.85.98-7.13h9.07v2.4h-7.44l.5-.46-.79,5.33-.6-.7c.16-.16.43-.31.82-.46.38-.16.81-.29,1.27-.38.48-.11.94-.17,1.37-.17,1.02,0,1.94.24,2.74.72.82.46,1.46,1.11,1.92,1.94.48.83.72,1.78.72,2.86s-.26,2.1-.79,3c-.53.88-1.25,1.58-2.16,2.11-.91.51-1.94.77-3.07.77ZM81.02,437.52l11.11-16.8h2.47l-11.23,16.8h-2.35ZM82.56,429.62c-.72,0-1.36-.19-1.92-.58-.54-.4-.98-.94-1.3-1.61-.3-.69-.46-1.47-.46-2.35s.15-1.66.46-2.35c.32-.7.76-1.25,1.32-1.63.56-.4,1.2-.6,1.92-.6s1.35.2,1.9.6c.56.38.99.93,1.3,1.63.32.69.48,1.47.48,2.35s-.16,1.62-.48,2.3c-.32.69-.76,1.23-1.32,1.63-.56.4-1.19.6-1.9.6ZM82.58,427.82c.34,0,.62-.11.86-.34.26-.22.45-.54.58-.94.14-.42.22-.9.22-1.46s-.07-1.05-.22-1.46c-.13-.42-.32-.74-.58-.96-.24-.22-.54-.34-.89-.34s-.63.12-.89.36c-.26.22-.46.54-.6.96-.13.4-.19.88-.19,1.44,0,.83.15,1.5.46,1.99.3.5.72.74,1.25.74ZM93.19,437.74c-.72,0-1.36-.2-1.92-.6-.54-.4-.98-.94-1.3-1.61-.32-.69-.48-1.46-.48-2.33s.15-1.66.46-2.35c.32-.7.76-1.25,1.32-1.63.56-.4,1.2-.6,1.92-.6s1.35.2,1.9.6c.56.38.99.93,1.3,1.63.32.69.48,1.47.48,2.35s-.16,1.62-.48,2.3-.76,1.23-1.32,1.63c-.54.4-1.17.6-1.87.6ZM93.19,435.96c.34,0,.63-.11.89-.34.26-.24.45-.56.58-.96.14-.42.22-.9.22-1.46,0-.83-.15-1.5-.46-1.99-.3-.51-.71-.77-1.22-.77-.35,0-.66.11-.91.34-.26.22-.46.54-.6.96-.13.42-.19.9-.19,1.46,0,.83.15,1.5.46,2.02.3.5.72.74,1.25.74Z"/>
  <path class="cls-8" d="M459.78,258.99c0,104.45-84.67,189.12-189.12,189.12s-189.12-84.67-189.12-189.12,84.67-189.12,189.12-189.12,189.12,84.67,189.12,189.12ZM132.6,258.99c0,76.25,61.81,138.06,138.06,138.06s138.06-61.81,138.06-138.06-61.81-138.06-138.06-138.06-138.06,61.81-138.06,138.06Z"/>
  <path class="cls-7" d="M423.65,370.26c-17.56,24.13-40.58,43.77-67.18,57.3-26.6,13.53-56.03,20.57-85.87,20.55l.04-51.06c21.79.02,43.27-5.13,62.69-15,19.42-9.88,36.22-24.21,49.04-41.83l41.29,30.04Z"/>
  <path class="cls-1" d="M270.61,448.11c-29.84-.01-59.26-7.08-85.85-20.64-26.59-13.56-49.59-33.22-67.12-57.37l41.32-30c12.8,17.63,29.59,31.98,49,41.88,19.41,9.9,40.89,15.06,62.67,15.07l-.02,51.06Z"/>
  <path class="cls-5" d="M117.48,370.01c-17.51-24.16-29.06-52.12-33.7-81.6-4.64-29.48-2.24-59.63,7.01-88l48.55,15.82c-6.75,20.71-8.5,42.72-5.11,64.24,3.39,21.52,11.82,41.93,24.6,59.56l-41.34,29.97Z"/>
  <path class="cls-6" d="M90.81,200.38c12.4-37.96,36.5-71.03,68.85-94.45l29.95,41.36c-23.61,17.1-41.21,41.24-50.26,68.95l-48.54-15.85Z"/>
  <path class="cls-2" d="M270.66,69.87c34.88,0,69.08,9.64,98.81,27.87,29.74,18.22,53.86,44.32,69.69,75.39,15.83,31.08,22.77,65.93,20.03,100.7-2.74,34.77-15.04,68.11-35.54,96.32l-41.31-30.01c14.97-20.6,23.94-44.93,25.94-70.32,2-25.38-3.06-50.82-14.62-73.51-11.56-22.69-29.17-41.73-50.88-55.04-21.71-13.3-46.67-20.34-72.13-20.34v-51.06Z"/>
  <path class="cls-4" d="M270.66,120.93c-14.9.01-29.6,2.42-43.55,7.07-13.37,4.44-26.06,10.93-37.59,19.32l-30.03-41.31c15.88-11.55,33.37-20.47,51.79-26.56,19.03-6.3,39.07-9.57,59.37-9.58v51.06Z"/>
  <path class="cls-3" d="M227.11,128c-13.37,4.44-26.06,10.93-37.59,19.32l-30.03-41.31c15.88-11.55,33.37-20.47,51.79-26.56l15.83,48.55Z"/>
  <path class="cls-10" d="M177.29,77.67l-24.32-24.32h-58.34"/>
  <path class="cls-9" d="M113.8,46.09c-1.1,0-2.1-.25-3-.74-.9-.51-1.64-1.24-2.23-2.18l1.44-1.61c.75.83,1.41,1.4,1.97,1.7.56.3,1.17.46,1.82.46s1.25-.14,1.78-.43c.53-.29.94-.68,1.25-1.18.32-.5.48-1.05.48-1.66,0-.64-.15-1.21-.46-1.7-.29-.51-.68-.91-1.18-1.2-.5-.3-1.06-.46-1.68-.46-.3,0-.59.02-.86.07-.27.03-.6.12-.98.26-.38.14-.89.37-1.51.67l-1.37-1.85.98-7.13h9.07v2.4h-7.44l.5-.46-.79,5.33-.6-.7c.16-.16.43-.31.82-.46.38-.16.81-.29,1.27-.38.48-.11.94-.17,1.37-.17,1.02,0,1.94.24,2.74.72.82.46,1.46,1.11,1.92,1.94.48.83.72,1.78.72,2.86s-.26,2.1-.79,3c-.53.88-1.25,1.58-2.16,2.11-.91.51-1.94.77-3.07.77ZM124.37,45.92l11.11-16.8h2.47l-11.23,16.8h-2.35ZM125.9,38.03c-.72,0-1.36-.19-1.92-.58-.54-.4-.98-.94-1.3-1.61-.3-.69-.46-1.47-.46-2.35s.15-1.66.46-2.35c.32-.7.76-1.25,1.32-1.63.56-.4,1.2-.6,1.92-.6s1.35.2,1.9.6c.56.38.99.93,1.3,1.63.32.69.48,1.47.48,2.35s-.16,1.62-.48,2.3c-.32.69-.76,1.23-1.32,1.63-.56.4-1.19.6-1.9.6ZM125.93,36.23c.34,0,.62-.11.86-.34.26-.22.45-.54.58-.94.14-.42.22-.9.22-1.46s-.07-1.05-.22-1.46c-.13-.42-.32-.74-.58-.96-.24-.22-.54-.34-.89-.34s-.63.12-.89.36c-.26.22-.46.54-.6.96-.13.4-.19.88-.19,1.44,0,.83.15,1.5.46,1.99.3.5.72.74,1.25.74ZM136.54,46.14c-.72,0-1.36-.2-1.92-.6-.54-.4-.98-.94-1.3-1.61-.32-.69-.48-1.46-.48-2.33s.15-1.66.46-2.35c.32-.7.76-1.25,1.32-1.63.56-.4,1.2-.6,1.92-.6s1.35.2,1.9.6c.56.38.99.93,1.3,1.63.32.69.48,1.47.48,2.35s-.16,1.62-.48,2.3-.76,1.23-1.32,1.63c-.54.4-1.17.6-1.87.6ZM136.54,44.36c.34,0,.63-.11.89-.34.26-.24.45-.56.58-.96.14-.42.22-.9.22-1.46,0-.83-.15-1.5-.46-1.99-.3-.51-.71-.77-1.22-.77-.35,0-.66.11-.91.34-.26.22-.46.54-.6.96-.13.42-.19.9-.19,1.46,0,.83.15,1.5.46,2.02.3.5.72.74,1.25.74Z"/>
  <path class="cls-9" d="M417.55,436.86v-13.63l.89.67-3.31,1.75-.7-2.26,4.49-2.4h1.25v15.86h-2.62ZM414.89,438.04v-2.5h8.02v2.5h-8.02ZM430.51,438.2c-1.1,0-2.1-.25-3-.74-.9-.51-1.64-1.24-2.23-2.18l1.44-1.61c.75.83,1.41,1.4,1.97,1.7s1.17.46,1.82.46,1.25-.14,1.78-.43c.53-.29.94-.68,1.25-1.18.32-.5.48-1.05.48-1.66,0-.64-.15-1.21-.46-1.7-.29-.51-.68-.91-1.18-1.2-.5-.3-1.06-.46-1.68-.46-.3,0-.59.02-.86.07-.27.03-.6.12-.98.26-.38.14-.89.37-1.51.67l-1.37-1.85.98-7.13h9.07v2.4h-7.44l.5-.46-.79,5.33-.6-.7c.16-.16.43-.31.82-.46.38-.16.81-.29,1.27-.38.48-.11.94-.17,1.37-.17,1.02,0,1.94.24,2.74.72.82.46,1.46,1.11,1.92,1.94.48.83.72,1.78.72,2.86s-.26,2.1-.79,3c-.53.88-1.25,1.58-2.16,2.11-.91.51-1.94.77-3.07.77ZM441.08,438.04l11.11-16.8h2.47l-11.23,16.8h-2.35ZM442.62,430.14c-.72,0-1.36-.19-1.92-.58-.54-.4-.98-.94-1.3-1.61-.3-.69-.46-1.47-.46-2.35s.15-1.66.46-2.35c.32-.7.76-1.25,1.32-1.63.56-.4,1.2-.6,1.92-.6s1.35.2,1.9.6c.56.38.99.93,1.3,1.63.32.69.48,1.47.48,2.35s-.16,1.62-.48,2.3-.76,1.23-1.32,1.63c-.56.4-1.19.6-1.9.6ZM442.64,428.34c.34,0,.62-.11.86-.34.26-.22.45-.54.58-.94.14-.42.22-.9.22-1.46s-.07-1.05-.22-1.46c-.13-.42-.32-.74-.58-.96-.24-.22-.54-.34-.89-.34s-.63.12-.89.36c-.26.22-.46.54-.6.96-.13.4-.19.88-.19,1.44,0,.83.15,1.5.46,1.99s.72.74,1.25.74ZM453.25,438.25c-.72,0-1.36-.2-1.92-.6-.54-.4-.98-.94-1.3-1.61-.32-.69-.48-1.46-.48-2.33s.15-1.66.46-2.35c.32-.7.76-1.25,1.32-1.63.56-.4,1.2-.6,1.92-.6s1.35.2,1.9.6c.56.38.99.93,1.3,1.63.32.69.48,1.47.48,2.35s-.16,1.62-.48,2.3-.76,1.23-1.32,1.63c-.54.4-1.17.6-1.87.6ZM453.25,436.48c.34,0,.63-.11.89-.34.26-.24.45-.56.58-.96.14-.42.22-.9.22-1.46,0-.83-.15-1.5-.46-1.99-.3-.51-.71-.77-1.22-.77-.35,0-.66.11-.91.34s-.46.54-.6.96c-.13.42-.19.9-.19,1.46,0,.83.15,1.5.46,2.02.3.5.72.74,1.25.74Z"/>
</svg>