<svg width="16" height="17" viewBox="0 0 16 17" fill="none" xmlns="http://www.w3.org/2000/svg">
<path d="M10.8732 2.32812C9.35375 2.32812 8.12199 3.55934 8.12199 5.07812C8.12199 5.30763 8.15012 5.53056 8.20312 5.74368C6.55 5.74368 3.95 5.38368 2 2.93924C2 9.05035 4.6 10.7818 5.9 10.8837C4.925 11.8003 3.4058 12.4789 2 12.6065C2.60481 13.1292 4.4992 13.3054 5.37079 13.3281C9.87806 13.3281 13.5415 9.71678 13.623 5.23095C14.4875 4.69582 14.898 3.24509 15 2.93924C14.5789 3.3602 13.7 3.55035 12.9997 3.33312C12.4951 2.7195 11.7299 2.32812 10.8732 2.32812Z" fill="#FEFEFE"/>
</svg>
