<svg width="13" height="12" viewBox="0 0 13 12" fill="none" xmlns="http://www.w3.org/2000/svg">
<path d="M8.8732 0.5C7.35375 0.5 6.12199 1.73122 6.12199 3.25C6.12199 3.4795 6.15012 3.70244 6.20312 3.91555C4.55 3.91555 1.95 3.55556 0 1.11111C0 7.22222 2.6 8.9537 3.9 9.05556C2.925 9.97222 1.4058 10.6508 0 10.7784C0.604815 11.301 2.4992 11.4772 3.37079 11.5C7.87806 11.5 11.5415 7.88866 11.623 3.40283C12.4875 2.86769 12.898 1.41696 13 1.11111C12.5789 1.53207 11.7 1.72222 10.9997 1.50499C10.4951 0.89137 9.72987 0.5 8.8732 0.5Z" fill="#0AC18E"/>
</svg>
