<svg width="25" height="24" viewBox="0 0 25 24" fill="none" xmlns="http://www.w3.org/2000/svg">
  <g clip-path="url(#clip0_16_1287)">
    <path d="M12.5 24C19.1274 24 24.5 18.6274 24.5 12C24.5 5.37258 19.1274 0 12.5 0C5.87258 0 0.5 5.37258 0.5 12C0.5 18.6274 5.87258 24 12.5 24Z" fill="#15B785" stroke="white" />
    <path fill-rule="evenodd" clip-rule="evenodd" d="M13.9415 13.0375V13.036C13.859 13.042 13.4337 13.0675 12.485 13.0675C11.7275 13.0675 11.1942 13.045 11.0067 13.036V13.0382C8.09073 12.91 5.91423 12.4022 5.91423 11.7947C5.91423 11.188 8.09073 10.6802 11.0067 10.5497V12.5327C11.1972 12.5462 11.7432 12.5785 12.4977 12.5785C13.403 12.5785 13.8567 12.541 13.9415 12.5335V10.5512C16.8515 10.681 19.0227 11.1887 19.0227 11.7947C19.0227 12.4022 16.8515 12.9085 13.9415 13.0375ZM13.9415 10.345V8.57047H18.002V5.86447H6.94623V8.57047H11.0067V10.3442C7.70673 10.4957 5.22498 11.1497 5.22498 11.9327C5.22498 12.7157 7.70673 13.369 11.0067 13.5212V19.2077H13.9415V13.5197C17.2362 13.3682 19.712 12.715 19.712 11.9327C19.712 11.1505 17.2362 10.4972 13.9415 10.345Z" fill="white"/>
  </g>
  <defs>
    <clipPath id="clip0_16_1287">
      <rect x="0.5" width="24" height="24" rx="12" fill="white" />
    </clipPath>
  </defs>
</svg>
